<svg width="23" height="23" viewBox="0 0 23 23" fill="none" xmlns="http://www.w3.org/2000/svg">
<g clip-path="url(#clip0_172_5419)">
<path d="M16.5652 11.4733C17.9341 11.23 19.1739 10.5835 20.1646 9.59325C21.4466 8.31118 22.1528 6.61982 22.1528 4.80929C22.1528 3.44766 21.0413 2.35171 19.675 2.35171H17.0492C17.0492 2.30467 17.0492 2.26739 17.0492 2.23823V0.429723C17.0492 0.169939 16.8155 0 16.5558 0H6.44335C6.18362 0 5.99607 0.169939 5.99607 0.429723V2.3111C5.99607 2.31689 5.9737 2.30472 5.97388 2.35175H3.32385C1.95818 2.35175 0.847168 3.4473 0.847168 4.80889C0.847168 6.61591 1.55361 8.31127 2.83644 9.59414C3.81605 10.5732 5.08909 11.232 6.44596 11.4735C6.85259 12.4013 7.50221 13.1941 8.33834 13.7801C8.80669 14.1083 9.33542 14.357 9.85283 14.5247V17.3558H9.63429C8.58797 17.3558 7.73625 18.1836 7.73625 19.2299V19.6845C6.70148 19.6933 5.85488 20.5408 5.85488 21.5816V22.5062C5.85488 22.766 6.06592 23 6.3257 23H16.6734C16.9331 23 17.1432 22.766 17.1432 22.5062V21.5816C17.1432 20.5408 16.2966 19.6933 15.2619 19.6845V19.2299C15.2619 18.1836 14.4111 17.3558 13.3648 17.3558H13.1453V14.5269C14.6504 14.0612 15.8923 12.9672 16.5652 11.4733ZM17.0492 5.17383H19.3195C19.1922 6.53784 18.3191 7.79619 17.0492 8.38853V5.17383ZM17.0327 9.40772C18.9592 8.71161 20.2761 6.87606 20.2761 4.81001C20.2761 4.48581 20.0064 4.23308 19.675 4.23308H17.0492V3.29241H19.675C20.5226 3.29241 21.2121 3.96642 21.2121 4.80929C21.2121 6.36853 20.6038 7.82957 19.4995 8.93388C18.7698 9.66319 17.8835 10.1731 16.9049 10.4375C16.9801 10.0992 17.0228 9.75411 17.0327 9.40772ZM3.50156 8.92387C2.39648 7.81874 1.78783 6.36507 1.78783 4.80929C1.78783 3.96642 2.47689 3.29241 3.32385 3.29241H5.99602V4.23312H3.32429C2.9947 4.23312 2.73658 4.47961 2.73658 4.80929C2.73658 5.90089 3.0876 6.92668 3.75168 7.78698C4.32223 8.52608 5.10536 9.09053 5.9838 9.40714C5.98403 9.41576 5.99351 9.9758 6.10613 10.4342C5.12867 10.1679 4.22287 9.64482 3.50156 8.92387ZM5.99602 5.17383V8.38745C4.72608 7.79713 3.82082 6.53784 3.69319 5.17383H5.99602ZM6.93669 0.940709H16.1085V1.88142H6.93669V0.940709ZM15.2462 20.6483C15.7738 20.6483 16.2025 21.054 16.2025 21.5816V22.0593H6.79559V21.5816C6.79559 21.0539 7.22531 20.6483 7.75292 20.6483H15.2462ZM13.3648 18.2965C13.8924 18.2965 14.3211 18.7023 14.3211 19.2299V19.7076H8.67701V19.2299C8.67701 18.7022 9.10673 18.2965 9.63433 18.2965H13.3648ZM10.7935 17.3558V14.7294C11.0287 14.7594 11.2646 14.7755 11.5039 14.7755C11.7406 14.7755 11.9694 14.7597 12.2046 14.7305V17.3558L10.7935 17.3558ZM11.5079 13.8348C9.62144 13.8348 7.89748 12.6511 7.22333 10.8893C7.21992 10.8803 7.22333 10.8715 7.21938 10.8628C7.10164 10.5508 6.93664 9.76561 6.93664 9.24892V2.82208H16.1084V9.24892C16.1084 9.74674 16.0026 10.2834 15.7996 10.8892C15.0859 12.6791 13.4008 13.8348 11.5079 13.8348Z" fill="black" fill-opacity="0.6"/>
<path d="M13.9767 7.16297C13.8736 7.07663 13.7451 6.96909 13.7082 6.90525C13.6666 6.83338 13.6366 6.66878 13.6102 6.52351C13.5449 6.16548 13.4637 5.7199 13.0613 5.48711C12.6684 5.25981 12.248 5.40792 11.9102 5.52701C11.7658 5.57795 11.602 5.63567 11.5083 5.63567C11.4146 5.63567 11.2509 5.57795 11.1064 5.52701C10.7688 5.40801 10.3484 5.25972 9.9554 5.48711C9.55285 5.71999 9.47168 6.16552 9.40645 6.52364C9.37999 6.66887 9.34994 6.83347 9.30843 6.9053C9.27146 6.96918 9.14308 7.07667 9.03989 7.16306C8.77153 7.3878 8.40393 7.69552 8.40393 8.17555C8.40393 8.65559 8.77148 8.96339 9.03989 9.18805C9.14303 9.27443 9.27146 9.38198 9.30839 9.44577C9.34999 9.51764 9.37999 9.68223 9.40645 9.82751C9.47172 10.1855 9.5529 10.6311 9.9554 10.8639C10.3482 11.0912 10.7686 10.9431 11.1064 10.824C11.2509 10.7731 11.4146 10.7153 11.5083 10.7153C11.602 10.7153 11.7657 10.7731 11.9102 10.824C12.1193 10.8977 12.3601 10.9826 12.6065 10.9826C12.758 10.9826 12.9116 10.9505 13.0612 10.8639C13.4638 10.631 13.5449 10.1855 13.6102 9.82742C13.6367 9.68219 13.6666 9.51755 13.7082 9.44572C13.7451 9.38184 13.8735 9.27439 13.9767 9.188C14.2451 8.96326 14.6127 8.6555 14.6127 8.17546C14.6127 7.69543 14.2452 7.38771 13.9767 7.16297ZM13.3727 8.46678C13.1964 8.61449 13.0139 8.76713 12.8939 8.97467C12.7705 9.18805 12.7249 9.43817 12.6847 9.65878C12.6631 9.77738 12.6283 9.96843 12.5888 10.0416C12.5072 10.037 12.3319 9.9753 12.2229 9.93681C12.0073 9.8608 11.7629 9.77468 11.5083 9.77468C11.2537 9.77468 11.0094 9.8608 10.7937 9.93681C10.6847 9.97521 10.5094 10.037 10.4278 10.0416C10.3884 9.96839 10.3535 9.77738 10.3319 9.65878C10.2917 9.43813 10.2461 9.18805 10.1227 8.97467C10.0027 8.76722 9.82027 8.61449 9.64386 8.46678C9.54387 8.38305 9.37963 8.2455 9.34725 8.17551C9.37959 8.10552 9.54387 7.96793 9.64386 7.88424C9.82023 7.73653 10.0027 7.58389 10.1227 7.37635C10.2461 7.16297 10.2917 6.91285 10.3319 6.69228C10.3535 6.57368 10.3883 6.38263 10.4278 6.3095C10.5094 6.31404 10.6847 6.3758 10.7937 6.41426C11.0094 6.49027 11.2537 6.57638 11.5083 6.57638C11.7629 6.57638 12.0073 6.49027 12.2229 6.41426C12.3319 6.37585 12.5072 6.31404 12.5888 6.3095C12.6282 6.38268 12.6631 6.57368 12.6847 6.69228C12.7249 6.91293 12.7705 7.16302 12.8939 7.37639C13.0139 7.58384 13.1963 7.73658 13.3727 7.88424C13.4727 7.96797 13.637 8.10552 13.6694 8.17551C13.637 8.2455 13.4727 8.38305 13.3727 8.46678Z" fill="black" fill-opacity="0.6"/>
</g>
<defs>
<clipPath id="clip0_172_5419">
<rect width="23" height="23" fill="white"/>
</clipPath>
</defs>
</svg>
