<svg width="25" height="25" viewBox="0 0 25 25" fill="none" xmlns="http://www.w3.org/2000/svg">
<g clip-path="url(#clip0_172_5436)">
<path d="M24.2185 25C24.1345 25.0004 24.051 24.9867 23.9716 24.9594L20.3122 23.7391C18.8884 24.5656 17.2711 25.0007 15.6247 25C13.1391 24.9975 10.756 24.009 8.99835 22.2514C7.24073 20.4938 6.25221 18.1107 6.24973 15.625C6.25221 13.1394 7.24073 10.7563 8.99835 8.99865C10.756 7.24103 13.1391 6.25252 15.6247 6.25004C18.1104 6.25252 20.4935 7.24103 22.2511 8.99865C24.0087 10.7563 24.9972 13.1394 24.9997 15.625C25 17.2714 24.565 18.8885 23.7388 20.3125L24.9607 23.9766C25.0066 24.1143 25.0133 24.2622 24.9799 24.4035C24.9465 24.5448 24.8743 24.674 24.7716 24.7766C24.624 24.9213 24.4251 25.0016 24.2185 25ZM15.6247 7.81253C13.5535 7.81502 11.5678 8.63891 10.1032 10.1035C8.63861 11.5681 7.81471 13.5538 7.81223 15.625C7.81471 17.6963 8.63861 19.682 10.1032 21.1466C11.5678 22.6112 13.5535 23.4351 15.6247 23.4375C17.1013 23.4362 18.5471 23.0152 19.7935 22.2235C19.8914 22.1614 20.002 22.1219 20.1171 22.1078C20.2323 22.0937 20.3491 22.1055 20.4591 22.1422L22.9841 22.9828L22.1419 20.4594C22.1052 20.3494 22.0934 20.2326 22.1075 20.1174C22.1215 20.0023 22.1611 19.8917 22.2232 19.7938C23.015 18.5475 23.4361 17.1016 23.4372 15.625C23.4347 13.5538 22.6109 11.5681 21.1463 10.1035C19.6817 8.63891 17.696 7.81502 15.6247 7.81253ZM1.02786 20.2719L5.71536 18.7094C5.91198 18.6441 6.07462 18.5034 6.16751 18.3182C6.26039 18.133 6.27592 17.9185 6.21067 17.7219C6.1782 17.6245 6.12684 17.5345 6.05955 17.4569C5.99225 17.3794 5.91034 17.3159 5.81848 17.27C5.72662 17.2242 5.62663 17.1969 5.52421 17.1897C5.4218 17.1825 5.31897 17.1956 5.22161 17.2282L2.01692 18.2953L3.21848 14.6875C3.25762 14.5688 3.26769 14.4424 3.24784 14.319C3.22799 14.1955 3.17881 14.0786 3.10442 13.9782C1.98779 12.4824 1.44852 10.6338 1.58573 8.77229C1.72295 6.91073 2.52742 5.16124 3.8513 3.84535C4.57535 3.1186 5.43632 2.54265 6.38441 2.15081C7.3325 1.75897 8.34887 1.55902 9.37473 1.56254C10.4009 1.55964 11.4175 1.76033 12.3656 2.15298C13.3137 2.54563 14.1745 3.12245 14.8982 3.85004C15.0447 3.9965 15.2434 4.07877 15.4505 4.07877C15.6577 4.07877 15.8563 3.9965 16.0029 3.85004C16.1493 3.70353 16.2316 3.50485 16.2316 3.29769C16.2316 3.09053 16.1493 2.89185 16.0029 2.74535C15.1345 1.87217 14.1015 1.17992 12.9638 0.708685C11.8261 0.237448 10.6062 -0.00341664 9.37473 3.66117e-05C8.14328 -0.00341664 6.92337 0.237448 5.78565 0.708685C4.64792 1.17992 3.61497 1.87217 2.74661 2.74535C1.20634 4.27394 0.249526 6.29332 0.0420506 8.45341C-0.165425 10.6135 0.38952 12.7781 1.61067 14.5719L0.0387962 19.2844C-0.00714762 19.4222 -0.0137953 19.57 0.0196005 19.7113C0.0529963 19.8526 0.125114 19.9818 0.227859 20.0844C0.300545 20.1569 0.386809 20.2144 0.481718 20.2535C0.576627 20.2927 0.67832 20.3127 0.780984 20.3125C0.86497 20.3129 0.948424 20.2992 1.02786 20.2719Z" fill="black" fill-opacity="0.6"/>
</g>
<defs>
<clipPath id="clip0_172_5436">
<rect width="25" height="25" fill="white"/>
</clipPath>
</defs>
</svg>
