<svg width="30" height="30" viewBox="0 0 30 30" fill="none" xmlns="http://www.w3.org/2000/svg">
<path d="M23.75 21.25V14.75C23.125 14.875 22.5 15 21.875 15H21.25V22.5H8.75V13.75C8.75 10.25 11.5 7.5 15 7.5C15.125 5.875 15.875 4.5 16.875 3.375C16.5 2.875 15.75 2.5 15 2.5C13.625 2.5 12.5 3.625 12.5 5V5.375C8.75 6.5 6.25 9.875 6.25 13.75V21.25L3.75 23.75V25H26.25V23.75L23.75 21.25ZM12.5 26.25C12.5 27.625 13.625 28.75 15 28.75C16.375 28.75 17.5 27.625 17.5 26.25H12.5ZM26.25 8.125C26.25 10.5 24.25 12.5 21.875 12.5C19.5 12.5 17.5 10.5 17.5 8.125C17.5 5.75 19.5 3.75 21.875 3.75C24.25 3.75 26.25 5.75 26.25 8.125Z" fill="black" fill-opacity="0.8"/>
</svg>
