<svg width="30" height="30" viewBox="0 0 30 30" fill="none" xmlns="http://www.w3.org/2000/svg">
<path d="M18.0703 16.2106C18.4643 15.6487 18.6966 14.9895 18.7418 14.3048C18.7871 13.62 18.6436 12.936 18.3269 12.3272C18.0102 11.7183 17.5326 11.2081 16.946 10.852C16.3593 10.4959 15.6863 10.3075 15 10.3075C14.3138 10.3075 13.6407 10.4959 13.054 10.852C12.4674 11.2081 11.9898 11.7183 11.6731 12.3272C11.3564 12.936 11.2129 13.62 11.2582 14.3048C11.3034 14.9895 11.5357 15.6487 11.9297 16.2106C11.5282 16.4002 11.1766 16.6811 10.9031 17.0309C10.6407 17.3658 10.4588 17.7564 10.3714 18.1728C10.284 18.5891 10.2935 19.02 10.3992 19.4321L11.8266 25.0571C11.9832 25.6684 12.3393 26.21 12.8386 26.5959C13.3379 26.9819 13.9518 27.1901 14.5828 27.1876H15.4172C16.0478 27.1903 16.6613 26.9826 17.1605 26.5973C17.6597 26.2121 18.0162 25.6713 18.1734 25.0606L19.6008 19.4356C19.7065 19.0235 19.716 18.5927 19.6286 18.1763C19.5412 17.76 19.3593 17.3693 19.0969 17.0344C18.8238 16.6833 18.4722 16.4012 18.0703 16.2106ZM15 12.1876C15.3708 12.1876 15.7334 12.2975 16.0417 12.5036C16.35 12.7096 16.5904 13.0024 16.7323 13.345C16.8742 13.6876 16.9113 14.0646 16.839 14.4284C16.7666 14.7921 16.588 15.1262 16.3258 15.3884C16.0636 15.6506 15.7295 15.8292 15.3658 15.9015C15.0021 15.9739 14.6251 15.9367 14.2825 15.7948C13.9399 15.6529 13.647 15.4126 13.441 15.1043C13.235 14.7959 13.125 14.4334 13.125 14.0626C13.125 13.5653 13.3225 13.0884 13.6742 12.7367C14.0258 12.3851 14.5027 12.1876 15 12.1876ZM17.7832 18.9739L16.3559 24.5989C16.3013 24.8052 16.1795 24.9875 16.0097 25.1168C15.8399 25.246 15.6318 25.3149 15.4184 25.3126H14.584C14.3706 25.3149 14.1625 25.246 13.9926 25.1168C13.8228 24.9875 13.701 24.8052 13.6465 24.5989L12.2191 18.9739C12.1839 18.8385 12.1806 18.6968 12.2095 18.56C12.2384 18.4231 12.2987 18.2948 12.3855 18.1852C12.4769 18.0681 12.5939 17.9736 12.7276 17.909C12.8614 17.8444 13.0081 17.8114 13.1566 17.8126H16.848C16.9966 17.8114 17.1433 17.8444 17.2771 17.909C17.4108 17.9736 17.5278 18.0681 17.6191 18.1852C17.7056 18.295 17.7655 18.4234 17.7939 18.5603C17.8224 18.6971 17.8187 18.8387 17.7832 18.9739ZM8.4375 15.0001C8.43714 15.5534 8.50644 16.1046 8.64375 16.6407C8.67667 16.7606 8.68542 16.8858 8.66949 17.0091C8.65356 17.1324 8.61326 17.2513 8.55094 17.3589C8.48863 17.4664 8.40554 17.5605 8.30651 17.6357C8.20748 17.7109 8.09449 17.7656 7.97412 17.7967C7.85375 17.8278 7.7284 17.8346 7.60536 17.8168C7.48232 17.799 7.36406 17.7568 7.25745 17.6929C7.15084 17.6289 7.05801 17.5444 6.98437 17.4442C6.91074 17.3441 6.85776 17.2303 6.82852 17.1094C6.50788 15.8629 6.47666 14.5596 6.73724 13.2992C6.99782 12.0388 7.54329 10.8547 8.33192 9.83755C9.12054 8.8204 10.1314 7.99714 11.2872 7.43078C12.4429 6.86442 13.7129 6.56997 15 6.56997C16.2871 6.56997 17.5571 6.86442 18.7128 7.43078C19.8686 7.99714 20.8795 8.8204 21.6681 9.83755C22.4567 10.8547 23.0022 12.0388 23.2628 13.2992C23.5233 14.5596 23.4921 15.8629 23.1715 17.1094C23.1196 17.3106 23.0023 17.4887 22.8381 17.616C22.674 17.7433 22.4722 17.8124 22.2645 17.8126C22.1854 17.8126 22.1067 17.8027 22.0301 17.7833C21.7894 17.7212 21.5832 17.5661 21.4569 17.3521C21.3305 17.138 21.2943 16.8826 21.3563 16.6419C21.5878 15.7403 21.6249 14.7997 21.465 13.8827C21.3052 12.9657 20.9521 12.0931 20.4292 11.323C19.9062 10.5529 19.2255 9.90288 18.4321 9.41606C17.6387 8.92924 16.7508 8.61677 15.8273 8.49942C14.9039 8.38206 13.9661 8.4625 13.0761 8.73539C12.1862 9.00828 11.3645 9.46738 10.6655 10.0822C9.96661 10.697 9.40649 11.4535 9.02235 12.3014C8.63821 13.1493 8.43885 14.0692 8.4375 15.0001ZM27.1875 15.0001C27.1891 17.0111 26.6924 18.9913 25.7416 20.7635C24.7909 22.5357 23.4159 24.0446 21.7395 25.1555C21.5324 25.2881 21.2817 25.334 21.0411 25.2835C20.8006 25.2329 20.5895 25.0899 20.4534 24.8852C20.3172 24.6806 20.2669 24.4306 20.3133 24.1892C20.3596 23.9478 20.4989 23.7343 20.7012 23.5946C22.547 22.3698 23.9494 20.5832 24.7007 18.4993C25.452 16.4153 25.5123 14.1449 24.8727 12.024C24.233 9.90313 22.9274 8.0446 21.1492 6.72357C19.371 5.40253 17.2146 4.68921 14.9994 4.68921C12.7842 4.68921 10.6278 5.40253 8.84962 6.72357C7.07139 8.0446 5.76582 9.90313 5.12618 12.024C4.48653 14.1449 4.54683 16.4153 5.29814 18.4993C6.04944 20.5832 7.45182 22.3698 9.29766 23.5946C9.4652 23.7061 9.59242 23.8685 9.66049 24.0579C9.72857 24.2473 9.7339 24.4536 9.67568 24.6462C9.61747 24.8389 9.4988 25.0077 9.33723 25.1277C9.17566 25.2477 8.97977 25.3125 8.77852 25.3126C8.59409 25.3128 8.41377 25.2582 8.26055 25.1555C6.50491 23.9903 5.08136 22.3899 4.12884 20.5103C3.17632 18.6308 2.72737 16.5364 2.82581 14.4316C2.92425 12.3268 3.56672 10.2834 4.69051 8.50102C5.8143 6.71859 7.38101 5.25798 9.23774 4.26173C11.0945 3.26548 13.1778 2.76764 15.2843 2.81679C17.3909 2.86595 19.4487 3.46042 21.2569 4.54219C23.0651 5.62395 24.562 7.15606 25.6015 8.98896C26.6409 10.8219 27.1873 12.8929 27.1875 15.0001Z" fill="black" fill-opacity="0.6"/>
</svg>
