<svg width="25" height="25" viewBox="0 0 25 25" fill="none" xmlns="http://www.w3.org/2000/svg">
<g clip-path="url(#clip0_172_5427)">
<path d="M15.0854 7.83959C16.1901 7.83959 17.0889 6.94083 17.0889 5.83618C17.0889 4.73153 16.1901 3.83276 15.0854 3.83276C13.9808 3.83276 13.082 4.73153 13.082 5.83618C13.082 6.94083 13.9808 7.83959 15.0854 7.83959ZM15.0854 4.88107C15.6121 4.88107 16.0406 5.30953 16.0406 5.83626C16.0406 6.363 15.6122 6.79146 15.0854 6.79146C14.5587 6.79146 14.1303 6.363 14.1303 5.83626C14.1303 5.30953 14.5588 4.88107 15.0854 4.88107Z" fill="black" fill-opacity="0.6"/>
<path d="M21.2174 6.37646C21.4125 6.0716 21.4748 5.70953 21.3926 5.35706C21.3106 5.0046 21.0949 4.70725 20.7852 4.51997C20.1707 4.1482 19.3799 4.32675 18.9846 4.92633L16.6898 8.40826H13.4812L10.759 4.27792C10.7293 4.23285 10.6939 4.19397 10.6543 4.16139L13.3614 1.08084C13.5526 0.863425 13.5312 0.532275 13.3137 0.341236C13.0963 0.15011 12.7651 0.171599 12.5741 0.38893L12.404 0.582327L11.8986 0.132553C11.6823 -0.059796 11.351 -0.0405786 11.1586 0.175704C10.9662 0.391988 10.9855 0.723226 11.2017 0.915662L11.7121 1.36972L11.4746 1.6399L11.0945 1.30158C10.8783 1.10923 10.547 1.12845 10.3545 1.34473C10.1621 1.56102 10.1814 1.89225 10.3977 2.08469L10.7827 2.42728L7.59368 6.05623C7.12993 5.77268 6.60014 5.62619 6.061 5.63668C5.33328 5.65205 4.67421 5.95097 4.20486 6.4784C3.73561 7.00574 3.51531 7.69521 3.58449 8.41971C3.65236 9.12961 3.99181 9.78938 4.5403 10.2775C5.09079 10.7673 5.77239 11.0101 6.43836 11.0101C7.15605 11.0101 7.85547 10.7281 8.35268 10.1694C9.1992 9.21793 9.18016 7.77776 8.37652 6.75321L8.8498 6.21468L12.6746 12.192V15.0276L10.8986 24.1748C10.8708 24.3184 10.9041 24.4672 10.9908 24.585C11.0774 24.703 11.2093 24.7793 11.3547 24.7955L13.1474 24.9967C13.4066 25.0263 13.6484 24.8595 13.7135 24.6064L15.0504 19.4093L16.2125 24.5905C16.2667 24.8321 16.4811 25 16.7234 25C16.7429 25 16.7626 24.9989 16.7823 24.9967L18.575 24.7955C18.718 24.7795 18.8482 24.7053 18.9349 24.5904C19.0216 24.4756 19.0572 24.3301 19.0334 24.1881L17.496 15.0181V12.192L21.2174 6.37646ZM7.56974 9.47247C6.99541 10.118 5.94902 10.1277 5.23728 9.49431C4.88699 9.18264 4.67062 8.76553 4.62808 8.31986C4.58685 7.88878 4.71474 7.48225 4.98806 7.17512C5.2613 6.86799 5.65027 6.69381 6.08328 6.68464C6.09542 6.68438 6.10739 6.68429 6.11953 6.68429C6.55454 6.68429 6.97986 6.84999 7.32062 7.15328C8.03227 7.78667 8.14408 8.82703 7.56974 9.47247ZM17.9083 23.8155L17.1326 23.9026L15.5968 17.0553C15.5437 16.8189 15.3357 16.6497 15.0935 16.6459C15.0908 16.6459 15.088 16.6459 15.0853 16.6459C14.8466 16.6459 14.6375 16.8076 14.5778 17.0394L12.8119 23.9042L12.036 23.8171L13.5833 15.8478H16.5647C16.5673 15.8478 16.5698 15.8474 16.5724 15.8474L17.9083 23.8155ZM16.5306 11.7561C16.4766 11.8404 16.4479 11.9385 16.4479 12.0386V14.7995H13.723V12.0314C13.723 12.0312 13.723 12.0309 13.723 12.0306C13.7228 11.9041 13.6777 11.7881 13.6029 11.6976L9.57001 5.39515L9.95279 4.95953L12.7612 9.22072C12.8582 9.36791 13.0226 9.4564 13.1989 9.4564H14.5614V13.2112C14.5614 13.5006 14.7961 13.7353 15.0855 13.7353C15.3749 13.7353 15.6096 13.5006 15.6096 13.2112V9.4564H16.9721C17.1484 9.4564 17.3127 9.36782 17.4098 9.22072L19.86 5.50303C19.9439 5.3755 20.1119 5.3375 20.2427 5.41664C20.3316 5.47036 20.3618 5.55125 20.3719 5.59457C20.382 5.63799 20.3906 5.72377 20.3346 5.81129L16.5306 11.7561Z" fill="black" fill-opacity="0.6"/>
</g>
<defs>
<clipPath id="clip0_172_5427">
<rect width="25" height="25" fill="white"/>
</clipPath>
</defs>
</svg>
